<svg width="50" height="50" viewBox="0 0 50 50" fill="none" xmlns="http://www.w3.org/2000/svg">
<g id="Group 165">
<circle id="Ellipse 121" cx="25" cy="25" r="25" fill="#868CD1"/>
<path id="Vector" d="M21.7953 32.3082C22.0935 32.9939 22.5855 33.5775 23.2109 33.9875C23.8362 34.3974 24.5676 34.6158 25.3153 34.6158C26.0631 34.6158 26.7945 34.3974 27.4198 33.9875C28.0452 33.5775 28.5371 32.9939 28.8353 32.3082H21.7953Z" fill="white"/>
<path id="Vector_2" d="M33.3092 25.8075L31.9738 21.4051C31.5462 19.8654 30.6164 18.5127 29.3322 17.5617C28.048 16.6107 26.4828 16.116 24.8853 16.1561C23.2878 16.1963 21.7495 16.7689 20.5146 17.7832C19.2797 18.7974 18.419 20.1951 18.0692 21.7544L17.0323 26.0136C16.8945 26.5796 16.887 27.1695 17.0105 27.7387C17.1339 28.308 17.3851 28.8418 17.7449 29.2998C18.1048 29.7579 18.564 30.1282 19.0879 30.3828C19.6118 30.6374 20.1867 30.7698 20.7692 30.7698H29.6285C30.229 30.7698 30.8212 30.6292 31.3577 30.3592C31.8941 30.0892 32.3599 29.6973 32.7177 29.215C33.0755 28.7326 33.3153 28.1732 33.4181 27.5814C33.5208 26.9897 33.4835 26.3822 33.3092 25.8075Z" fill="white"/>
</g>
</svg>
